All The Episodes of Ghost Hunt (Ep 01-25) at 480p Video Quality :)

Please seed after you download.

--------------------------------------------------------------------------------

Cover
------
 
http://imageshack.us/scaled/landing/16/ghosthuntcursator.jpg

---------------------------------------------------------------------------------

Info
---------------------------------------------------------------------------------

Torrent Statistics
-------------------
   
http://torrent-stats.info/1789/2fe4295e.png

---------------------------------------------------------------------------------

General
--------

Format                                   : MPEG-4
Format profile                           : Base Media
Codec ID                                 : isom
File size                                : 26.5 MiB
Duration                                 : 24mn 14s
Overall bit rate mode                    : Variable
Overall bit rate                         : 153 Kbps
Encoded date                             : UTC 2011-12-22 05:25:37
Tagged date                              : UTC 2011-12-22 05:25:37


Video
---------------------------------------

ID                                       : 1
Format                                   : AVC
Format/Info                              : Advanced Video Codec
Format profile                           : High@L3.0
Format settings, CABAC                   : Yes
Format settings, ReFrames                : 8 frames
Codec ID                                 : avc1
Codec ID/Info                            : Advanced Video Coding
Duration                                 : 24mn 14s
Bit rate                                 : 85.1 Kbps
Maximum bit rate                         : 394 Kbps
Width                                    : 640 pixels
Height                                   : 480 pixels
Display aspect ratio                     : 16:9
Frame rate mode                          : Constant
Frame rate                               : 23.976 fps
Color space                              : YUV
Chroma subsampling                       : 4:2:0
Bit depth                                : 8 bits
Scan type                                : Progressive
Bits/(Pixel*Frame)                       : 0.015
Stream size                              : 14.8 MiB (56%)
Title                                    : Imported with GPAC 0.4.6-DEV (build 1)
Writing library                          : x264 core 92 r1510 33d382a

Audio
----------------------------------

ID                                       : 2
Format                                   : AAC
Format/Info                              : Advanced Audio Codec
Format profile                           : LC
Codec ID                                 : 40
Duration                                 : 24mn 14s
Bit rate mode                            : Variable
Bit rate                                 : 64.0 Kbps
Maximum bit rate                         : 116 Kbps
Channel(s)                               : 2 channels
Channel positions                        : Front: L R
Sampling rate                            : 48.0 KHz
Compression mode                         : Lossy
Stream size                              : 11.1 MiB (42%)
Encoded date                             : UTC 2011-12-22 05:25:38
Tagged date                              : UTC 2011-12-22 05:25:38


----------------------------------------------------------------------------------

Screenshots
----------------------------------------------------------------------------------
                  
http://img5.imageshack.us/img5/500/ghosthunt01.png
                  
http://img221.imageshack.us/img221/2615/ghosthunt02.png
                  
http://img266.imageshack.us/img266/4079/ghosthunt03.png
                  
http://img846.imageshack.us/img846/202/ghosthunt04.png
                  
http://img805.imageshack.us/img805/4174/ghosthunt05.png
 

----------------------------------------------------------------------------------

Story
----------------------------------------------------------------------------------

Telling ghost stories is a favorite past time of Mai Taniyama and her friendsΓÇöthat is, until she meets 17-year-old Kazuya Shibuya, the man sent by Shibuya Psychic Research Center to investigate paranormal activity at a supposedly haunted school. When Mai gets caught in a dangerous situation, she is rescued by Kazuya's assistant. Saving her lands the assistant incapacitated, and Kazuya demands that Mai become his assistant, instead...

----------------------------------------------------------------------------------

Thank you for downloading. 

Enjoy Watching :)		
--------------------------------------------------------------------------------

Facebook and Email
------------------

Facebook/Cursator (Add .com)

Cursator@ymail.com 

Thank you :)		
								